<svg xmlns="http://www.w3.org/2000/svg" version="1.0" width="507.000000pt" height="504.000000pt" viewBox="0 0 507.000000 504.000000" preserveAspectRatio="xMidYMid meet">

<g transform="translate(0.000000,504.000000) scale(0.100000,-0.100000)" fill="#fff" stroke="none">
<path d="M2345 5034 c-16 -2 -73 -9 -125 -15 -374 -42 -779 -193 -1102 -410 -212 -143 -460 -376 -606 -571 -266 -355 -431 -759 -493 -1208 -18 -124 -18 -496 0 -620 62 -449 227 -853 493 -1208 93 -124 295 -332 421 -433 373 -301 798 -482 1287 -550 124 -18 506 -18 630 0 598 83 1099 334 1510 757 381 392 614 875 691 1434 18 124 18 496 0 620 -62 449 -227 853 -493 1208 -93 124 -295 332 -421 433 -365 295 -778 474 -1252 545 -95 14 -476 27 -540 18z m564 -568 c394 -68 776 -269 1066 -560 289 -291 467 -643 541 -1071 25 -141 25 -530 0 -665 -91 -505 -356 -943 -747 -1241 -255 -194 -620 -356 -666 -296 -19 24 -23 65 -33 397 -13 375 -19 415 -80 520 -22 38 -40 71 -40 74 0 3 29 6 63 6 118 0 311 64 444 146 266 165 401 480 379 881 -11 179 -44 285 -135 423 l-36 55 3 170 c6 299 -33 407 -140 389 -84 -14 -215 -64 -338 -127 l-135 -70 -87 17 c-113 21 -434 40 -575 32 -62 -3 -152 -13 -200 -22 -124 -23 -163 -16 -296 55 -196 105 -341 138 -399 91 -53 -41 -83 -273 -54 -429 16 -91 14 -101 -31 -155 -30 -35 -89 -151 -115 -226 -26 -70 -36 -322 -19 -462 26 -226 135 -439 286 -561 114 -93 337 -186 499 -210 45 -7 80 -17 83 -24 3 -7 -8 -28 -25 -47 -16 -19 -40 -65 -52 -102 -26 -78 -52 -108 -106 -123 -58 -16 -189 -13 -258 6 -56 15 -68 24 -146 106 -211 223 -233 243 -284 260 -87 30 -196 19 -196 -19 0 -8 46 -61 103 -117 80 -79 112 -119 142 -177 77 -151 156 -245 244 -289 82 -42 147 -53 319 -53 l162 1 0 -132 c0 -154 -12 -242 -37 -269 -28 -31 -126 -21 -236 24 -190 79 -488 279 -642 433 -128 127 -310 393 -392 574 -47 103 -121 326 -145 434 -28 133 -36 496 -14 663 110 838 726 1502 1561 1684 180 39 554 42 764 6z"/>
</g>
</svg>