<svg xmlns="http://www.w3.org/2000/svg" version="1.0" width="521.000000pt" height="521.000000pt" viewBox="0 0 521.000000 521.000000" preserveAspectRatio="xMidYMid meet">

<g transform="translate(0.000000,521.000000) scale(0.100000,-0.100000)" fill="#fff" stroke="none">
<path d="M2325 5195 c-802 -88 -1520 -543 -1941 -1231 -702 -1146 -413 -2645 665 -3447 1153 -858 2787 -619 3644 532 858 1153 619 2787 -532 3644 -525 391 -1189 572 -1836 502z m394 -1283 c25 -42 111 -195 193 -339 81 -145 216 -383 299 -530 83 -148 193 -342 244 -433 51 -91 132 -235 180 -320 49 -85 118 -209 155 -275 37 -66 95 -169 129 -229 33 -60 61 -110 61 -112 0 -2 -589 -4 -1310 -4 -1348 0 -1335 0 -1301 36 5 5 51 83 102 174 100 179 155 276 299 530 52 91 119 210 150 265 31 55 126 222 210 370 84 149 219 387 300 530 211 374 234 415 240 415 3 0 25 -35 49 -78z"/>
</g>
</svg>