<svg xmlns="http://www.w3.org/2000/svg" width="1080" height="1080" viewBox="0 0 1080 1080" version="1.1"><path d="M 456 256 C 456 256.652, 439.667 257, 409 257 L 362 257 362 280.393 C 362 300.802, 362.202 303.863, 363.582 304.393 C 364.452 304.727, 375.477 305, 388.082 305 L 411 305 411 433.154 L 411 561.309 423.750 560.658 C 430.762 560.301, 447.863 560.006, 461.750 560.004 L 487 560 487 469.939 L 487 379.878 535.537 380.189 C 570.450 380.413, 584.274 380.820, 584.787 381.639 C 585.179 382.265, 588.860 383.297, 592.967 383.931 C 597.075 384.566, 600.675 385.460, 600.967 385.917 C 601.260 386.375, 602.962 387.066, 604.750 387.454 C 606.538 387.842, 608 388.517, 608 388.954 C 608 389.392, 609.296 390.009, 610.879 390.326 C 612.463 390.643, 614.380 391.523, 615.139 392.282 C 615.899 393.041, 617.721 393.964, 619.190 394.333 C 620.659 394.701, 622.454 395.565, 623.180 396.252 C 623.906 396.938, 625.850 398.175, 627.500 399 C 629.150 399.825, 631.095 400.950, 631.822 401.500 C 632.549 402.050, 634.011 403.288, 635.072 404.250 C 636.132 405.212, 637.424 406, 637.943 406 C 638.462 406, 639.475 406.829, 640.193 407.841 C 640.912 408.854, 642.474 410.199, 643.664 410.830 C 644.854 411.462, 649.016 415.192, 652.914 419.121 C 656.811 423.049, 660 426.581, 660 426.969 C 660 427.357, 661.800 429.567, 664 431.879 C 666.200 434.192, 668 436.445, 668 436.887 C 668 437.328, 669.124 438.996, 670.499 440.594 C 671.873 442.193, 672.998 444.288, 672.999 445.250 C 672.999 446.212, 673.395 447, 673.879 447 C 674.362 447, 675.317 448.350, 676 450 C 676.683 451.650, 677.640 453, 678.125 453 C 678.611 453, 679.549 455.025, 680.211 457.500 C 680.873 459.975, 681.723 462, 682.099 462 C 682.475 462, 683.066 463.125, 683.411 464.500 C 683.756 465.875, 684.435 467, 684.919 467 C 685.404 467, 686.361 469.363, 687.045 472.250 C 687.730 475.137, 688.674 477.751, 689.144 478.058 C 689.613 478.365, 690.491 481.290, 691.095 484.558 C 691.699 487.826, 692.524 490.725, 692.929 491 C 693.334 491.275, 694.191 494.737, 694.833 498.693 C 695.475 502.649, 696 507.674, 696 509.859 C 696 512.045, 696.462 513.987, 697.028 514.176 C 697.682 514.394, 698.054 521.212, 698.051 532.936 C 698.049 543.065, 697.670 551.611, 697.210 551.926 C 696.750 552.242, 695.863 556.959, 695.239 562.409 C 694.615 567.858, 693.658 572.594, 693.111 572.931 C 692.564 573.269, 691.653 576.426, 691.086 579.947 C 690.519 583.467, 689.666 586.607, 689.191 586.924 C 688.716 587.241, 687.705 589.638, 686.945 592.250 C 686.185 594.862, 685.247 597, 684.861 597 C 684.475 597, 683.862 598.350, 683.500 600 C 683.138 601.650, 682.445 603, 681.961 603 C 681.476 603, 680.541 604.800, 679.882 607 C 679.223 609.200, 678.359 611, 677.963 611 C 677.567 611, 676.683 612.350, 676 614 C 675.317 615.650, 674.446 617, 674.065 617 C 673.685 617, 672.755 618.575, 672 620.500 C 671.245 622.425, 670.315 624, 669.935 624 C 669.554 624, 668.683 625.350, 668 627 C 667.317 628.650, 666.348 630, 665.847 630 C 665.347 630, 664.644 630.788, 664.286 631.750 C 663.928 632.712, 661.017 636.038, 657.817 639.140 C 654.618 642.242, 652 645.280, 652 645.890 C 652 646.501, 651.325 647, 650.500 647 C 649.675 647, 649 647.675, 649 648.500 C 649 649.325, 648.566 650, 648.034 650 C 647.503 650, 645.744 651.237, 644.125 652.750 C 642.506 654.263, 639.903 656.506, 638.341 657.737 C 636.778 658.967, 635.046 659.979, 634.491 659.987 C 633.935 659.994, 632.919 660.900, 632.232 662 C 631.545 663.100, 630.312 664, 629.492 664 C 628.671 664, 628 664.414, 628 664.921 C 628 665.427, 626.620 666.144, 624.932 666.515 C 623.245 666.885, 621.622 667.821, 621.325 668.594 C 621.029 669.367, 620.153 670, 619.379 670 C 618.606 670, 616.966 670.563, 615.736 671.250 C 614.506 671.938, 613.275 672.791, 613 673.147 C 612.725 673.502, 610.587 674.307, 608.250 674.935 C 605.913 675.563, 604 676.469, 604 676.948 C 604 677.427, 600.737 678.366, 596.750 679.034 C 592.763 679.702, 589.230 680.672, 588.900 681.190 C 588.571 681.708, 584.858 682.392, 580.650 682.710 C 576.443 683.028, 573 683.674, 573 684.144 C 573 684.615, 553.650 685, 530 685 L 487 685 487 746.441 C 487 780.234, 487.337 808.066, 487.750 808.290 C 488.163 808.515, 512.988 808.427, 542.918 808.095 C 585.037 807.629, 597.430 807.211, 597.751 806.246 C 597.980 805.561, 599.592 805.003, 601.333 805.007 C 603.075 805.010, 607.987 804.482, 612.250 803.834 C 616.513 803.185, 620 802.314, 620 801.899 C 620 801.484, 622.475 800.835, 625.500 800.457 C 628.525 800.079, 631 799.420, 631 798.993 C 631 798.566, 633.925 797.636, 637.500 796.925 C 641.075 796.214, 644 795.315, 644 794.927 C 644 794.539, 646.025 793.623, 648.500 792.892 C 650.975 792.161, 653 791.297, 653 790.971 C 653 790.645, 655.250 789.801, 658 789.097 C 660.750 788.392, 663 787.505, 663 787.126 C 663 786.747, 665.025 785.839, 667.500 785.108 C 669.975 784.377, 672 783.469, 672 783.091 C 672 782.712, 673.575 781.832, 675.500 781.136 C 677.425 780.440, 679 779.450, 679 778.935 C 679 778.421, 679.681 778, 680.514 778 C 681.346 778, 683.034 777.438, 684.264 776.750 C 685.494 776.063, 686.725 775.274, 687 774.998 C 687.275 774.723, 688.850 773.823, 690.500 773 C 692.150 772.177, 693.860 770.940, 694.300 770.252 C 694.740 769.563, 695.682 769, 696.394 769 C 697.106 769, 698.996 767.876, 700.594 766.501 C 702.193 765.127, 703.856 764.002, 704.292 764.001 C 704.728 764.001, 705.783 763.438, 706.636 762.750 C 707.490 762.063, 709.210 760.487, 710.459 759.250 C 711.708 758.013, 713.128 756.992, 713.615 756.983 C 714.102 756.973, 715.560 755.848, 716.855 754.483 C 718.150 753.117, 719.729 752, 720.364 752 C 720.999 752, 722.081 751.100, 722.768 750 C 723.455 748.900, 724.688 748, 725.508 748 C 726.329 748, 727 747.325, 727 746.500 C 727 745.675, 727.675 745, 728.500 745 C 729.325 745, 730 744.325, 730 743.500 C 730 742.675, 730.373 742, 730.828 742 C 731.283 742, 735.694 738.063, 740.628 733.250 C 745.563 728.438, 749.901 723.712, 750.269 722.750 C 750.636 721.788, 751.626 721, 752.469 721 C 753.311 721, 754.008 720.438, 754.017 719.750 C 754.027 719.063, 755.152 717.440, 756.517 716.145 C 757.883 714.850, 759 713.271, 759 712.636 C 759 712.001, 759.900 710.919, 761 710.232 C 762.100 709.545, 763 708.522, 763 707.958 C 763 707.394, 764.237 705.706, 765.750 704.206 C 767.263 702.706, 769.174 700.134, 769.998 698.490 C 770.822 696.845, 772.060 695.140, 772.748 694.700 C 773.437 694.260, 774 693.270, 774 692.500 C 774 691.730, 774.589 690.740, 775.309 690.300 C 776.029 689.860, 777.208 688.038, 777.930 686.250 C 778.652 684.462, 779.554 683, 779.935 683 C 780.315 683, 781.245 681.425, 782 679.500 C 782.755 677.575, 783.695 676, 784.089 676 C 784.482 676, 785.275 674.650, 785.850 673 C 786.425 671.350, 787.313 670, 787.823 670 C 788.333 670, 789.009 668.704, 789.326 667.121 C 789.643 665.537, 790.500 663.624, 791.231 662.871 C 791.962 662.117, 793.202 659.475, 793.987 657 C 794.771 654.525, 795.956 652.162, 796.619 651.749 C 797.282 651.337, 798.123 649.234, 798.487 647.078 C 798.851 644.921, 799.791 642.911, 800.575 642.610 C 801.359 642.309, 802 641.149, 802 640.031 C 802 638.914, 802.365 638, 802.811 638 C 803.257 638, 804.221 635.638, 804.954 632.750 C 805.686 629.862, 806.573 627.275, 806.926 627 C 807.278 626.725, 808.155 623.576, 808.873 620.003 C 809.592 616.430, 810.517 613.280, 810.930 613.003 C 811.342 612.726, 812.245 609.575, 812.938 606 C 813.631 602.425, 814.564 599.272, 815.013 598.994 C 815.462 598.715, 816.374 593.765, 817.041 587.994 C 817.707 582.222, 818.586 577.275, 818.994 577 C 819.402 576.725, 820.245 570.185, 820.868 562.466 C 821.490 554.748, 822 541.764, 822 533.613 C 822 525.462, 821.496 512.202, 820.879 504.146 C 820.262 496.091, 819.419 489.275, 819.005 489 C 818.591 488.725, 817.707 483.778, 817.041 478.006 C 816.374 472.235, 815.483 467.285, 815.061 467.006 C 814.638 466.728, 813.725 463.462, 813.033 459.750 C 812.340 456.038, 811.464 453, 811.086 453 C 810.708 453, 809.798 449.625, 809.065 445.500 C 808.332 441.375, 807.385 438, 806.959 438 C 806.533 438, 805.608 435.750, 804.903 433 C 804.199 430.250, 803.257 428, 802.811 428 C 802.365 428, 802 427.132, 802 426.071 C 802 425.011, 801.344 423.487, 800.543 422.686 C 799.742 421.885, 798.564 419.153, 797.925 416.615 C 797.285 414.077, 796.366 412, 795.881 412 C 795.397 412, 795 411.127, 795 410.059 C 795 408.991, 794.550 407.840, 794 407.500 C 793.450 407.160, 793 406.057, 793 405.048 C 793 404.039, 792.367 402.971, 791.594 402.675 C 790.821 402.378, 789.885 400.755, 789.515 399.068 C 789.144 397.380, 788.471 396, 788.018 396 C 787.566 396, 786.725 394.650, 786.150 393 C 785.575 391.350, 784.689 390, 784.182 390 C 783.675 390, 782.693 387.975, 782 385.500 C 781.307 383.025, 780.403 381, 779.991 381 C 779.580 381, 778.683 379.650, 778 378 C 777.317 376.350, 776.417 375, 776 375 C 775.583 375, 774.683 373.650, 774 372 C 773.317 370.350, 772.392 369, 771.946 369 C 771.500 369, 770.843 368.081, 770.486 366.957 C 770.130 365.833, 768.085 363.071, 765.943 360.819 C 763.800 358.567, 761.794 355.928, 761.486 354.954 C 761.177 353.981, 760.266 352.932, 759.462 352.624 C 758.658 352.315, 757.996 351.486, 757.990 350.781 C 757.985 350.077, 756.189 347.925, 754 346 C 751.811 344.075, 750.015 342.124, 750.010 341.664 C 750.004 341.205, 745.331 336.142, 739.624 330.414 C 733.916 324.686, 728.936 320, 728.556 320 C 728.176 320, 726.380 318.425, 724.565 316.500 C 722.749 314.575, 720.864 313, 720.375 313 C 719.886 313, 718.130 311.538, 716.472 309.750 C 714.814 307.962, 712.131 305.825, 710.509 305 C 708.887 304.175, 706.792 302.825, 705.852 302 C 704.912 301.175, 703.453 299.936, 702.609 299.246 C 701.766 298.556, 699.933 297.471, 698.538 296.835 C 697.142 296.199, 696 295.345, 696 294.937 C 696 294.529, 694.650 293.725, 693 293.150 C 691.350 292.575, 690 291.666, 690 291.131 C 690 290.597, 688.653 289.863, 687.006 289.501 C 685.359 289.140, 683.672 288.268, 683.256 287.563 C 682.840 286.859, 680.813 285.734, 678.750 285.064 C 676.688 284.393, 675 283.501, 675 283.081 C 675 282.660, 673.200 281.777, 671 281.118 C 668.800 280.459, 667 279.541, 667 279.079 C 667 278.616, 664.923 277.715, 662.385 277.075 C 659.847 276.436, 657.156 275.299, 656.405 274.548 C 655.654 273.797, 653.231 272.877, 651.020 272.503 C 648.809 272.130, 647 271.434, 647 270.957 C 647 270.481, 645.425 269.795, 643.500 269.434 C 641.575 269.073, 640 268.450, 640 268.049 C 640 267.649, 636.737 266.716, 632.750 265.978 C 628.763 265.239, 625.260 264.286, 624.967 263.860 C 624.675 263.434, 621.075 262.566, 616.967 261.931 C 612.860 261.297, 609.243 260.369, 608.929 259.869 C 608.615 259.369, 601.077 258.424, 592.179 257.768 C 583.280 257.112, 576 256.221, 576 255.788 C 576 255.354, 549.938 255, 518.083 255 C 472.728 255, 460.040 255.271, 459.583 256.250 C 459.117 257.250, 458.883 257.250, 458.417 256.250 C 458.096 255.563, 457.421 255, 456.917 255 C 456.413 255, 456 255.450, 456 256 M 329 590.941 C 329 729.509, 329.337 843.045, 329.750 843.245 C 330.163 843.445, 357.837 843.425, 391.250 843.202 L 452 842.796 452 718.898 L 452 595 414.607 595 C 381.432 595, 377.146 594.822, 376.607 593.418 C 376.273 592.548, 376 534.948, 376 465.418 L 376 339 352.500 339 L 329 339 329 590.941" stroke="none" fill="#936bfb" fill-rule="evenodd"/><path d="M 95.283 2.078 C 90.214 3.143, 82.279 5.384, 77.650 7.059 C 73.021 8.734, 65.264 12.381, 60.412 15.163 C 55.560 17.945, 49.545 21.768, 47.045 23.659 C 44.545 25.549, 39.412 30.112, 35.639 33.798 C 31.865 37.484, 26.863 42.975, 24.524 46 C 22.185 49.025, 17.952 55.545, 15.118 60.488 C 12.284 65.432, 9.028 71.957, 7.882 74.988 C 6.736 78.020, 4.606 84.775, 3.149 90 L 0.500 99.500 0.500 539 L 0.500 978.500 2.367 986.500 C 3.394 990.900, 5.555 998.160, 7.169 1002.633 C 8.784 1007.106, 12.381 1014.736, 15.163 1019.588 C 17.945 1024.440, 21.768 1030.455, 23.659 1032.955 C 25.549 1035.455, 30.112 1040.588, 33.798 1044.361 C 37.484 1048.135, 42.975 1053.137, 46 1055.476 C 49.025 1057.815, 55.490 1062.017, 60.367 1064.812 C 65.244 1067.608, 73.006 1071.260, 77.617 1072.929 C 82.227 1074.597, 90.475 1076.874, 95.945 1077.989 L 105.891 1080.016 543.196 1079.750 L 980.500 1079.484 988.732 1077.261 C 993.259 1076.039, 1000.459 1073.689, 1004.732 1072.038 C 1009.004 1070.387, 1016.100 1066.934, 1020.500 1064.365 C 1024.900 1061.795, 1030.975 1057.787, 1034 1055.457 C 1037.025 1053.128, 1042.516 1048.135, 1046.202 1044.361 C 1049.888 1040.588, 1054.451 1035.455, 1056.341 1032.955 C 1058.232 1030.455, 1062.055 1024.440, 1064.837 1019.588 C 1067.619 1014.736, 1071.255 1007.010, 1072.916 1002.418 C 1074.578 997.826, 1076.681 990.116, 1077.591 985.285 C 1078.500 980.453, 1079.639 975.719, 1080.122 974.764 C 1080.622 973.775, 1081 785.934, 1081 538.455 C 1081 294.142, 1080.621 104.116, 1080.135 104.417 C 1079.659 104.711, 1078.987 102.549, 1078.642 99.613 C 1078.297 96.677, 1076.869 90.276, 1075.468 85.387 C 1074.067 80.499, 1071.333 73.125, 1069.394 69 C 1067.454 64.875, 1063.021 57.225, 1059.543 52 C 1055.629 46.119, 1049.654 39.066, 1043.860 33.486 C 1038.712 28.528, 1031.956 22.795, 1028.847 20.746 C 1025.738 18.698, 1019.888 15.242, 1015.847 13.068 C 1011.806 10.893, 1004.448 7.760, 999.496 6.105 C 994.543 4.450, 986.497 2.399, 981.615 1.548 C 973.690 0.166, 926.200 0.008, 538.619 0.071 L 104.500 0.142 95.283 2.078 M 0.495 540 C 0.495 779.525, 0.610 877.513, 0.750 757.750 C 0.890 637.988, 0.890 442.013, 0.750 322.250 C 0.610 202.488, 0.495 300.475, 0.495 540 M 456 256 C 456 256.652, 439.667 257, 409 257 L 362 257 362 280.393 C 362 300.802, 362.202 303.863, 363.582 304.393 C 364.452 304.727, 375.477 305, 388.082 305 L 411 305 411 433.154 L 411 561.309 423.750 560.658 C 430.762 560.301, 447.863 560.006, 461.750 560.004 L 487 560 487 469.939 L 487 379.878 535.537 380.189 C 570.450 380.413, 584.274 380.820, 584.787 381.639 C 585.179 382.265, 588.860 383.297, 592.967 383.931 C 597.075 384.566, 600.675 385.460, 600.967 385.917 C 601.260 386.375, 602.962 387.066, 604.750 387.454 C 606.538 387.842, 608 388.517, 608 388.954 C 608 389.392, 609.296 390.009, 610.879 390.326 C 612.463 390.643, 614.380 391.523, 615.139 392.282 C 615.899 393.041, 617.721 393.964, 619.190 394.333 C 620.659 394.701, 622.454 395.565, 623.180 396.252 C 623.906 396.938, 625.850 398.175, 627.500 399 C 629.150 399.825, 631.095 400.950, 631.822 401.500 C 632.549 402.050, 634.011 403.288, 635.072 404.250 C 636.132 405.212, 637.424 406, 637.943 406 C 638.462 406, 639.475 406.829, 640.193 407.841 C 640.912 408.854, 642.474 410.199, 643.664 410.830 C 644.854 411.462, 649.016 415.192, 652.914 419.121 C 656.811 423.049, 660 426.581, 660 426.969 C 660 427.357, 661.800 429.567, 664 431.879 C 666.200 434.192, 668 436.445, 668 436.887 C 668 437.328, 669.124 438.996, 670.499 440.594 C 671.873 442.193, 672.998 444.288, 672.999 445.250 C 672.999 446.212, 673.395 447, 673.879 447 C 674.362 447, 675.317 448.350, 676 450 C 676.683 451.650, 677.640 453, 678.125 453 C 678.611 453, 679.549 455.025, 680.211 457.500 C 680.873 459.975, 681.723 462, 682.099 462 C 682.475 462, 683.066 463.125, 683.411 464.500 C 683.756 465.875, 684.435 467, 684.919 467 C 685.404 467, 686.361 469.363, 687.045 472.250 C 687.730 475.137, 688.674 477.751, 689.144 478.058 C 689.613 478.365, 690.491 481.290, 691.095 484.558 C 691.699 487.826, 692.524 490.725, 692.929 491 C 693.334 491.275, 694.191 494.737, 694.833 498.693 C 695.475 502.649, 696 507.674, 696 509.859 C 696 512.045, 696.462 513.987, 697.028 514.176 C 697.682 514.394, 698.054 521.212, 698.051 532.936 C 698.049 543.065, 697.670 551.611, 697.210 551.926 C 696.750 552.242, 695.863 556.959, 695.239 562.409 C 694.615 567.858, 693.658 572.594, 693.111 572.931 C 692.564 573.269, 691.653 576.426, 691.086 579.947 C 690.519 583.467, 689.666 586.607, 689.191 586.924 C 688.716 587.241, 687.705 589.638, 686.945 592.250 C 686.185 594.862, 685.247 597, 684.861 597 C 684.475 597, 683.862 598.350, 683.500 600 C 683.138 601.650, 682.445 603, 681.961 603 C 681.476 603, 680.541 604.800, 679.882 607 C 679.223 609.200, 678.359 611, 677.963 611 C 677.567 611, 676.683 612.350, 676 614 C 675.317 615.650, 674.446 617, 674.065 617 C 673.685 617, 672.755 618.575, 672 620.500 C 671.245 622.425, 670.315 624, 669.935 624 C 669.554 624, 668.683 625.350, 668 627 C 667.317 628.650, 666.348 630, 665.847 630 C 665.347 630, 664.644 630.788, 664.286 631.750 C 663.928 632.712, 661.017 636.038, 657.817 639.140 C 654.618 642.242, 652 645.280, 652 645.890 C 652 646.501, 651.325 647, 650.500 647 C 649.675 647, 649 647.675, 649 648.500 C 649 649.325, 648.566 650, 648.034 650 C 647.503 650, 645.744 651.237, 644.125 652.750 C 642.506 654.263, 639.903 656.506, 638.341 657.737 C 636.778 658.967, 635.046 659.979, 634.491 659.987 C 633.935 659.994, 632.919 660.900, 632.232 662 C 631.545 663.100, 630.312 664, 629.492 664 C 628.671 664, 628 664.414, 628 664.921 C 628 665.427, 626.620 666.144, 624.932 666.515 C 623.245 666.885, 621.622 667.821, 621.325 668.594 C 621.029 669.367, 620.153 670, 619.379 670 C 618.606 670, 616.966 670.563, 615.736 671.250 C 614.506 671.938, 613.275 672.791, 613 673.147 C 612.725 673.502, 610.587 674.307, 608.250 674.935 C 605.913 675.563, 604 676.469, 604 676.948 C 604 677.427, 600.737 678.366, 596.750 679.034 C 592.763 679.702, 589.230 680.672, 588.900 681.190 C 588.571 681.708, 584.858 682.392, 580.650 682.710 C 576.443 683.028, 573 683.674, 573 684.144 C 573 684.615, 553.650 685, 530 685 L 487 685 487 746.441 C 487 780.234, 487.337 808.066, 487.750 808.290 C 488.163 808.515, 512.988 808.427, 542.918 808.095 C 585.037 807.629, 597.430 807.211, 597.751 806.246 C 597.980 805.561, 599.592 805.003, 601.333 805.007 C 603.075 805.010, 607.987 804.482, 612.250 803.834 C 616.513 803.185, 620 802.314, 620 801.899 C 620 801.484, 622.475 800.835, 625.500 800.457 C 628.525 800.079, 631 799.420, 631 798.993 C 631 798.566, 633.925 797.636, 637.500 796.925 C 641.075 796.214, 644 795.315, 644 794.927 C 644 794.539, 646.025 793.623, 648.500 792.892 C 650.975 792.161, 653 791.297, 653 790.971 C 653 790.645, 655.250 789.801, 658 789.097 C 660.750 788.392, 663 787.505, 663 787.126 C 663 786.747, 665.025 785.839, 667.500 785.108 C 669.975 784.377, 672 783.469, 672 783.091 C 672 782.712, 673.575 781.832, 675.500 781.136 C 677.425 780.440, 679 779.450, 679 778.935 C 679 778.421, 679.681 778, 680.514 778 C 681.346 778, 683.034 777.438, 684.264 776.750 C 685.494 776.063, 686.725 775.274, 687 774.998 C 687.275 774.723, 688.850 773.823, 690.500 773 C 692.150 772.177, 693.860 770.940, 694.300 770.252 C 694.740 769.563, 695.682 769, 696.394 769 C 697.106 769, 698.996 767.876, 700.594 766.501 C 702.193 765.127, 703.856 764.002, 704.292 764.001 C 704.728 764.001, 705.783 763.438, 706.636 762.750 C 707.490 762.063, 709.210 760.487, 710.459 759.250 C 711.708 758.013, 713.128 756.992, 713.615 756.983 C 714.102 756.973, 715.560 755.848, 716.855 754.483 C 718.150 753.117, 719.729 752, 720.364 752 C 720.999 752, 722.081 751.100, 722.768 750 C 723.455 748.900, 724.688 748, 725.508 748 C 726.329 748, 727 747.325, 727 746.500 C 727 745.675, 727.675 745, 728.500 745 C 729.325 745, 730 744.325, 730 743.500 C 730 742.675, 730.373 742, 730.828 742 C 731.283 742, 735.694 738.063, 740.628 733.250 C 745.563 728.438, 749.901 723.712, 750.269 722.750 C 750.636 721.788, 751.626 721, 752.469 721 C 753.311 721, 754.008 720.438, 754.017 719.750 C 754.027 719.063, 755.152 717.440, 756.517 716.145 C 757.883 714.850, 759 713.271, 759 712.636 C 759 712.001, 759.900 710.919, 761 710.232 C 762.100 709.545, 763 708.522, 763 707.958 C 763 707.394, 764.237 705.706, 765.750 704.206 C 767.263 702.706, 769.174 700.134, 769.998 698.490 C 770.822 696.845, 772.060 695.140, 772.748 694.700 C 773.437 694.260, 774 693.270, 774 692.500 C 774 691.730, 774.589 690.740, 775.309 690.300 C 776.029 689.860, 777.208 688.038, 777.930 686.250 C 778.652 684.462, 779.554 683, 779.935 683 C 780.315 683, 781.245 681.425, 782 679.500 C 782.755 677.575, 783.695 676, 784.089 676 C 784.482 676, 785.275 674.650, 785.850 673 C 786.425 671.350, 787.313 670, 787.823 670 C 788.333 670, 789.009 668.704, 789.326 667.121 C 789.643 665.537, 790.500 663.624, 791.231 662.871 C 791.962 662.117, 793.202 659.475, 793.987 657 C 794.771 654.525, 795.956 652.162, 796.619 651.749 C 797.282 651.337, 798.123 649.234, 798.487 647.078 C 798.851 644.921, 799.791 642.911, 800.575 642.610 C 801.359 642.309, 802 641.149, 802 640.031 C 802 638.914, 802.365 638, 802.811 638 C 803.257 638, 804.221 635.638, 804.954 632.750 C 805.686 629.862, 806.573 627.275, 806.926 627 C 807.278 626.725, 808.155 623.576, 808.873 620.003 C 809.592 616.430, 810.517 613.280, 810.930 613.003 C 811.342 612.726, 812.245 609.575, 812.938 606 C 813.631 602.425, 814.564 599.272, 815.013 598.994 C 815.462 598.715, 816.374 593.765, 817.041 587.994 C 817.707 582.222, 818.586 577.275, 818.994 577 C 819.402 576.725, 820.245 570.185, 820.868 562.466 C 821.490 554.748, 822 541.764, 822 533.613 C 822 525.462, 821.496 512.202, 820.879 504.146 C 820.262 496.091, 819.419 489.275, 819.005 489 C 818.591 488.725, 817.707 483.778, 817.041 478.006 C 816.374 472.235, 815.483 467.285, 815.061 467.006 C 814.638 466.728, 813.725 463.462, 813.033 459.750 C 812.340 456.038, 811.464 453, 811.086 453 C 810.708 453, 809.798 449.625, 809.065 445.500 C 808.332 441.375, 807.385 438, 806.959 438 C 806.533 438, 805.608 435.750, 804.903 433 C 804.199 430.250, 803.257 428, 802.811 428 C 802.365 428, 802 427.132, 802 426.071 C 802 425.011, 801.344 423.487, 800.543 422.686 C 799.742 421.885, 798.564 419.153, 797.925 416.615 C 797.285 414.077, 796.366 412, 795.881 412 C 795.397 412, 795 411.127, 795 410.059 C 795 408.991, 794.550 407.840, 794 407.500 C 793.450 407.160, 793 406.057, 793 405.048 C 793 404.039, 792.367 402.971, 791.594 402.675 C 790.821 402.378, 789.885 400.755, 789.515 399.068 C 789.144 397.380, 788.471 396, 788.018 396 C 787.566 396, 786.725 394.650, 786.150 393 C 785.575 391.350, 784.689 390, 784.182 390 C 783.675 390, 782.693 387.975, 782 385.500 C 781.307 383.025, 780.403 381, 779.991 381 C 779.580 381, 778.683 379.650, 778 378 C 777.317 376.350, 776.417 375, 776 375 C 775.583 375, 774.683 373.650, 774 372 C 773.317 370.350, 772.392 369, 771.946 369 C 771.500 369, 770.843 368.081, 770.486 366.957 C 770.130 365.833, 768.085 363.071, 765.943 360.819 C 763.800 358.567, 761.794 355.928, 761.486 354.954 C 761.177 353.981, 760.266 352.932, 759.462 352.624 C 758.658 352.315, 757.996 351.486, 757.990 350.781 C 757.985 350.077, 756.189 347.925, 754 346 C 751.811 344.075, 750.015 342.124, 750.010 341.664 C 750.004 341.205, 745.331 336.142, 739.624 330.414 C 733.916 324.686, 728.936 320, 728.556 320 C 728.176 320, 726.380 318.425, 724.565 316.500 C 722.749 314.575, 720.864 313, 720.375 313 C 719.886 313, 718.130 311.538, 716.472 309.750 C 714.814 307.962, 712.131 305.825, 710.509 305 C 708.887 304.175, 706.792 302.825, 705.852 302 C 704.912 301.175, 703.453 299.936, 702.609 299.246 C 701.766 298.556, 699.933 297.471, 698.538 296.835 C 697.142 296.199, 696 295.345, 696 294.937 C 696 294.529, 694.650 293.725, 693 293.150 C 691.350 292.575, 690 291.666, 690 291.131 C 690 290.597, 688.653 289.863, 687.006 289.501 C 685.359 289.140, 683.672 288.268, 683.256 287.563 C 682.840 286.859, 680.813 285.734, 678.750 285.064 C 676.688 284.393, 675 283.501, 675 283.081 C 675 282.660, 673.200 281.777, 671 281.118 C 668.800 280.459, 667 279.541, 667 279.079 C 667 278.616, 664.923 277.715, 662.385 277.075 C 659.847 276.436, 657.156 275.299, 656.405 274.548 C 655.654 273.797, 653.231 272.877, 651.020 272.503 C 648.809 272.130, 647 271.434, 647 270.957 C 647 270.481, 645.425 269.795, 643.500 269.434 C 641.575 269.073, 640 268.450, 640 268.049 C 640 267.649, 636.737 266.716, 632.750 265.978 C 628.763 265.239, 625.260 264.286, 624.967 263.860 C 624.675 263.434, 621.075 262.566, 616.967 261.931 C 612.860 261.297, 609.243 260.369, 608.929 259.869 C 608.615 259.369, 601.077 258.424, 592.179 257.768 C 583.280 257.112, 576 256.221, 576 255.788 C 576 255.354, 549.938 255, 518.083 255 C 472.728 255, 460.040 255.271, 459.583 256.250 C 459.117 257.250, 458.883 257.250, 458.417 256.250 C 458.096 255.563, 457.421 255, 456.917 255 C 456.413 255, 456 255.450, 456 256 M 329 590.941 C 329 729.509, 329.337 843.045, 329.750 843.245 C 330.163 843.445, 357.837 843.425, 391.250 843.202 L 452 842.796 452 718.898 L 452 595 414.607 595 C 381.432 595, 377.146 594.822, 376.607 593.418 C 376.273 592.548, 376 534.948, 376 465.418 L 376 339 352.500 339 L 329 339 329 590.941" stroke="none" fill="#1c1c24" fill-rule="evenodd"/></svg>