<svg xmlns="http://www.w3.org/2000/svg" version="1.1" xmlns:xlink="http://www.w3.org/1999/xlink" xmlns:svgjs="http://svgjs.dev/svgjs" width="1440" height="560" preserveAspectRatio="none" viewBox="0 0 1440 560">
    <g mask="url(&quot;#SvgjsMask1131&quot;)" fill="none">
        <rect width="1440" height="560" x="0" y="0" fill="#151518"></rect>
        <path d="M1325.024,616.247C1361.823,616.66,1398.908,601.499,1416.703,569.287C1434.027,537.928,1425.016,499.969,1406.051,469.575C1388.314,441.15,1358.418,425.085,1325.024,422.358C1285.029,419.092,1238.161,419.882,1217.3,454.162C1195.982,489.193,1214.14,533.116,1236.839,567.269C1256.787,597.283,1288.988,615.843,1325.024,616.247" fill="rgba(47, 47, 47, 0.3)" class="triangle-float2"></path>
        <path d="M1305.856,300.606C1340.058,299.281,1361.935,267.662,1377.791,237.328C1392.203,209.757,1399.358,177.731,1384.326,150.492C1368.837,122.425,1337.913,106.831,1305.856,106.977C1274.057,107.122,1245.044,123.976,1228.612,151.2C1211.582,179.414,1208.435,214.03,1223.57,243.304C1240.022,275.127,1270.059,301.993,1305.856,300.606" fill="rgba(47, 47, 47, 0.3)" class="triangle-float1"></path>
        <path d="M315.234,465.802C361.877,467.906,410.681,455.251,436.095,416.083C463.591,373.707,463.924,318.783,439.214,274.724C413.969,229.711,366.81,198.739,315.234,200.585C266.283,202.337,227.743,239.326,205.727,283.081C185.969,322.349,189.297,368.262,211.894,405.968C233.825,442.562,272.615,463.879,315.234,465.802" fill="rgba(47, 47, 47, 0.3)" class="triangle-float3"></path>
        <path d="M114.466,159.823C143.249,161.233,169.822,143.453,183.487,118.081C196.507,93.908,191.806,65.281,178.244,41.409C164.487,17.195,142.281,-2.028,114.466,-3.41C84.232,-4.912,52.326,7.455,38.677,34.474C25.896,59.775,41.575,87.59,56.241,111.847C70.187,134.913,87.544,158.504,114.466,159.823" fill="rgba(47, 47, 47, 0.3)" class="triangle-float1"></path>
        <path d="M931.163,248.446C967.288,246.824,993.369,217.357,1010.387,185.451C1026.231,155.745,1029.912,121.494,1014.967,91.326C998.069,57.216,969.222,24.825,931.163,25.53C893.851,26.221,870.613,61.669,852.571,94.336C835.33,125.552,822.374,161.398,838.575,193.166C856.078,227.487,892.676,250.174,931.163,248.446" fill="rgba(47, 47, 47, 0.3)" class="triangle-float2"></path>
    </g>
    <defs>
        <mask id="SvgjsMask1131">
            <rect width="1440" height="560" fill="#ffffff"></rect>
        </mask>
        <style>
            @keyframes load{
                0%{
                    opacity: 0;
                }
                100%{
                    opacity:100%;
                }
            }

            svg{
                animation: load 7s ease;
            }

            @keyframes float1 {
                    0%{transform: translate(0, 0)}
                    50%{transform: translate(-10px, 0)}
                    100%{transform: translate(0, 0)}
                }

                .triangle-float1 {
                    animation: float1 5s infinite;
                }

                @keyframes float2 {
                    0%{transform: translate(0, 0)}
                    50%{transform: translate(-5px, -5px)}
                    100%{transform: translate(0, 0)}
                }

                .triangle-float2 {
                    animation: float2 411s infinite;
                }

                @keyframes float3 {
                    0%{transform: translate(0, 0)}
                    50%{transform: translate(0, -10px)}
                    100%{transform: translate(0, 0)}
                }

                .triangle-float3 {
                    animation: float3 6s infinite;
                }
        </style>
    </defs>
</svg>